<svg width="128" height="59" viewBox="0 0 128 59" fill="none" xmlns="http://www.w3.org/2000/svg">
<rect x="0.574642" y="0.574642" width="126.421" height="56.8896" stroke="white" stroke-opacity="0.2" stroke-width="1.14928"/>
<g clip-path="url(#clip0_150_3640)">
<path d="M24.3862 40.1249C20.9736 40.1053 18.1509 33.1392 18.1509 29.5915C18.1509 23.7964 22.4982 22.5277 24.1736 22.5277C24.9287 22.5277 25.7349 22.8242 26.446 23.0866C26.9433 23.2696 27.4576 23.4585 27.7436 23.4585C27.9148 23.4585 28.3182 23.2978 28.6745 23.1568C29.4341 22.8544 30.3794 22.4785 31.4802 22.4785C31.4821 22.4785 31.4848 22.4785 31.4867 22.4785C32.3086 22.4785 34.8008 22.6589 36.2991 24.909L36.6501 25.4364L36.145 25.8175C35.4234 26.362 34.1068 27.3552 34.1068 29.3226C34.1068 31.6527 35.5979 32.5488 36.3142 32.9798C36.6304 33.17 36.9578 33.3662 36.9578 33.7952C36.9578 34.0753 34.7221 40.0902 31.4755 40.0902C30.6811 40.0902 30.1196 39.8514 29.6243 39.6408C29.1231 39.4276 28.6908 39.244 27.9764 39.244C27.6143 39.244 27.1564 39.4152 26.6716 39.5969C26.0091 39.8441 25.2593 40.1249 24.4085 40.1249H24.3862Z" fill="white"/>
<path d="M31.8242 17.1963C31.9088 20.2449 29.7285 22.36 27.5508 22.2273C27.192 19.7944 29.7282 17.1963 31.8242 17.1963Z" fill="white"/>
</g>
<path d="M49.0854 22.823C48.7119 22.823 48.3669 22.76 48.0503 22.6338C47.7337 22.5077 47.4604 22.3296 47.2303 22.0996C47.0003 21.8671 46.8198 21.5801 46.6887 21.2388C46.56 20.8975 46.4957 20.519 46.4957 20.1035C46.4957 19.688 46.56 19.3095 46.6887 18.9682C46.8173 18.6269 46.9954 18.3412 47.2229 18.1112C47.4505 17.8787 47.7238 17.6993 48.0429 17.5732C48.3619 17.4471 48.7094 17.384 49.0854 17.384C49.7013 17.384 50.2083 17.5509 50.6066 17.8848C51.0048 18.2188 51.2348 18.6516 51.2966 19.1834H50.6066C50.5447 18.8272 50.3753 18.5391 50.0983 18.3189C49.8237 18.0963 49.4861 17.985 49.0854 17.985C48.519 17.985 48.0614 18.1767 47.7127 18.5601C47.3664 18.941 47.1932 19.4555 47.1932 20.1035C47.1932 20.754 47.3676 21.271 47.7164 21.6543C48.0651 22.0352 48.5215 22.2257 49.0854 22.2257C49.4886 22.2257 49.8324 22.1033 50.1168 21.8584C50.4037 21.6111 50.5744 21.3044 50.6288 20.9383H51.3189C51.2521 21.4824 51.0159 21.9326 50.6103 22.2888C50.2046 22.6449 49.6963 22.823 49.0854 22.823ZM53.942 22.823C53.3286 22.823 52.8227 22.6215 52.4245 22.2183C52.0288 21.8126 51.8309 21.2932 51.8309 20.66C51.8309 20.0268 52.0288 19.5074 52.4245 19.1018C52.8227 18.6961 53.3286 18.4933 53.942 18.4933C54.5603 18.4933 55.0686 18.6961 55.4668 19.1018C55.8651 19.5074 56.0642 20.0268 56.0642 20.66C56.0642 21.2932 55.8651 21.8126 55.4668 22.2183C55.0686 22.6215 54.5603 22.823 53.942 22.823ZM52.918 19.5247C52.6533 19.8191 52.521 20.1975 52.521 20.66C52.521 21.1226 52.6533 21.501 52.918 21.7953C53.1851 22.0872 53.5264 22.2331 53.942 22.2331C54.36 22.2331 54.7038 22.0872 54.9734 21.7953C55.243 21.501 55.3778 21.1226 55.3778 20.66C55.3778 20.1975 55.243 19.8191 54.9734 19.5247C54.7038 19.2279 54.36 19.0795 53.942 19.0795C53.5264 19.0795 53.1851 19.2279 52.918 19.5247ZM61.8037 18.4933C62.2242 18.4933 62.5717 18.6293 62.8463 18.9014C63.1208 19.171 63.2581 19.526 63.2581 19.9662V22.7637H62.5717V20.1109C62.5717 19.8067 62.4876 19.5631 62.3194 19.38C62.1513 19.1945 61.9262 19.1018 61.6442 19.1018C61.2707 19.1018 60.9727 19.2687 60.7501 19.6026C60.5275 19.9366 60.4162 20.3855 60.4162 20.9494V22.7637H59.7372V20.1109C59.7372 19.8067 59.6531 19.5631 59.4849 19.38C59.3167 19.1945 59.0929 19.1018 58.8134 19.1018C58.4349 19.1018 58.1344 19.2675 57.9118 19.5989C57.6917 19.9304 57.5816 20.3805 57.5816 20.9494V22.7637H56.8952V18.5527H57.5816V19.2761C57.7028 19.0486 57.8871 18.8618 58.1344 18.7159C58.3842 18.5675 58.6575 18.4933 58.9544 18.4933C59.2833 18.4933 59.5641 18.5762 59.7966 18.7419C60.0315 18.9051 60.1973 19.1438 60.2937 19.4579C60.4471 19.1512 60.6585 18.9138 60.9281 18.7456C61.1978 18.5774 61.4896 18.4933 61.8037 18.4933ZM64.2932 22.7637V18.5527H64.9796V22.7637H64.2932ZM64.2858 17.8626V17.102H64.9945V17.8626H64.2858ZM66.0741 22.7637V18.5527H66.7605V19.2761C66.9039 19.0436 67.108 18.8557 67.3726 18.7122C67.6398 18.5663 67.9242 18.4933 68.226 18.4933C68.6761 18.4933 69.0521 18.6293 69.3539 18.9014C69.6556 19.1735 69.8065 19.526 69.8065 19.9588V22.7637H69.1313V20.1109C69.1313 19.8067 69.0373 19.5631 68.8493 19.38C68.6638 19.1945 68.4201 19.1018 68.1184 19.1018C67.7177 19.1018 67.3912 19.2576 67.1389 19.5692C66.8866 19.8784 66.7605 20.3125 66.7605 20.8715V22.7637H66.0741ZM72.6336 24.2069C72.1365 24.2069 71.7209 24.0931 71.387 23.8656C71.0556 23.638 70.8552 23.3313 70.786 22.9455H71.4686C71.6071 23.4006 72.0004 23.6281 72.6485 23.6281C73.0516 23.6281 73.3707 23.523 73.6057 23.3128C73.8431 23.105 73.9618 22.8131 73.9618 22.4372V21.8807C73.8233 22.0983 73.6217 22.2739 73.3571 22.4075C73.0949 22.5386 72.8154 22.6041 72.5186 22.6041C71.9448 22.6041 71.4773 22.4149 71.1162 22.0365C70.7551 21.6556 70.5745 21.1634 70.5745 20.5599C70.5745 19.944 70.7538 19.4456 71.1125 19.0647C71.4736 18.6838 71.9398 18.4933 72.5112 18.4933C72.8129 18.4933 73.0949 18.5576 73.3571 18.6862C73.6193 18.8124 73.8209 18.983 73.9618 19.1982V18.5527H74.6371V22.4075C74.6371 22.969 74.4503 23.4092 74.0769 23.7283C73.7058 24.0474 73.2248 24.2069 72.6336 24.2069ZM71.2646 20.545C71.2646 20.9729 71.3907 21.3241 71.643 21.5987C71.8978 21.8732 72.2206 22.0105 72.6114 22.0105C73.0022 22.0105 73.3249 21.8732 73.5797 21.5987C73.8345 21.3217 73.9618 20.9704 73.9618 20.545C73.9618 20.1221 73.8345 19.7721 73.5797 19.495C73.3249 19.218 73.0022 19.0795 72.6114 19.0795C72.2206 19.0795 71.8978 19.218 71.643 19.495C71.3907 19.7721 71.2646 20.1221 71.2646 20.545ZM78.7516 22.823C78.2693 22.823 77.876 22.6957 77.5718 22.4409C77.2676 22.1861 77.1019 21.846 77.0746 21.4206H77.7499C77.7722 21.6803 77.8711 21.8819 78.0467 22.0254C78.2248 22.1688 78.4598 22.2405 78.7516 22.2405C79.0163 22.2405 79.2253 22.1787 79.3786 22.055C79.5345 21.9314 79.6124 21.7644 79.6124 21.5542C79.6124 21.4157 79.5679 21.3006 79.4788 21.2091C79.3898 21.1151 79.2735 21.0422 79.1301 20.9902C78.9891 20.9383 78.832 20.8913 78.6589 20.8492C78.4857 20.8072 78.3126 20.759 78.1395 20.7045C77.9663 20.6477 77.808 20.5796 77.6646 20.5005C77.5236 20.4189 77.4086 20.3039 77.3195 20.1554C77.2305 20.0046 77.186 19.8252 77.186 19.6175C77.186 19.2935 77.3195 19.0251 77.5866 18.8124C77.8538 18.5997 78.1939 18.4933 78.6069 18.4933C79.0645 18.4933 79.4293 18.6021 79.7014 18.8198C79.9735 19.035 80.133 19.3392 80.18 19.7325H79.4974C79.4627 19.5223 79.3687 19.3602 79.2154 19.2465C79.0645 19.1302 78.8617 19.0721 78.6069 19.0721C78.3843 19.0721 78.2062 19.1216 78.0727 19.2205C77.9391 19.3194 77.8723 19.4518 77.8723 19.6175C77.8723 19.7238 77.907 19.8154 77.9762 19.892C78.0455 19.9662 78.137 20.0244 78.2508 20.0664C78.3645 20.106 78.4932 20.148 78.6366 20.1926C78.7825 20.2346 78.9309 20.2729 79.0818 20.3076C79.2352 20.3422 79.3836 20.3929 79.527 20.4597C79.673 20.524 79.8028 20.5994 79.9166 20.686C80.0304 20.7701 80.1219 20.8863 80.1912 21.0348C80.2604 21.1832 80.295 21.3538 80.295 21.5467C80.295 21.9301 80.1503 22.2393 79.861 22.4743C79.574 22.7068 79.2043 22.823 78.7516 22.823ZM82.9626 22.823C82.3492 22.823 81.8434 22.6215 81.4452 22.2183C81.0494 21.8126 80.8516 21.2932 80.8516 20.66C80.8516 20.0268 81.0494 19.5074 81.4452 19.1018C81.8434 18.6961 82.3492 18.4933 82.9626 18.4933C83.581 18.4933 84.0893 18.6961 84.4875 19.1018C84.8857 19.5074 85.0848 20.0268 85.0848 20.66C85.0848 21.2932 84.8857 21.8126 84.4875 22.2183C84.0893 22.6215 83.581 22.823 82.9626 22.823ZM81.9386 19.5247C81.674 19.8191 81.5416 20.1975 81.5416 20.66C81.5416 21.1226 81.674 21.501 81.9386 21.7953C82.2058 22.0872 82.5471 22.2331 82.9626 22.2331C83.3806 22.2331 83.7244 22.0872 83.994 21.7953C84.2636 21.501 84.3984 21.1226 84.3984 20.66C84.3984 20.1975 84.2636 19.8191 83.994 19.5247C83.7244 19.2279 83.3806 19.0795 82.9626 19.0795C82.5471 19.0795 82.2058 19.2279 81.9386 19.5247ZM87.771 22.823C87.1575 22.823 86.6517 22.6215 86.2535 22.2183C85.8578 21.8126 85.6599 21.2932 85.6599 20.66C85.6599 20.0268 85.8578 19.5074 86.2535 19.1018C86.6517 18.6961 87.1575 18.4933 87.771 18.4933C88.3893 18.4933 88.8976 18.6961 89.2958 19.1018C89.694 19.5074 89.8932 20.0268 89.8932 20.66C89.8932 21.2932 89.694 21.8126 89.2958 22.2183C88.8976 22.6215 88.3893 22.823 87.771 22.823ZM86.747 19.5247C86.4823 19.8191 86.35 20.1975 86.35 20.66C86.35 21.1226 86.4823 21.501 86.747 21.7953C87.0141 22.0872 87.3554 22.2331 87.771 22.2331C88.189 22.2331 88.5328 22.0872 88.8024 21.7953C89.072 21.501 89.2068 21.1226 89.2068 20.66C89.2068 20.1975 89.072 19.8191 88.8024 19.5247C88.5328 19.2279 88.189 19.0795 87.771 19.0795C87.3554 19.0795 87.0141 19.2279 86.747 19.5247ZM90.7242 22.7637V18.5527H91.4106V19.2761C91.5541 19.0436 91.7581 18.8557 92.0228 18.7122C92.2899 18.5663 92.5743 18.4933 92.8761 18.4933C93.3263 18.4933 93.7022 18.6293 94.004 18.9014C94.3057 19.1735 94.4566 19.526 94.4566 19.9588V22.7637H93.7814V20.1109C93.7814 19.8067 93.6874 19.5631 93.4994 19.38C93.3139 19.1945 93.0703 19.1018 92.7685 19.1018C92.3678 19.1018 92.0413 19.2576 91.789 19.5692C91.5367 19.8784 91.4106 20.3125 91.4106 20.8715V22.7637H90.7242ZM99.0423 22.823C98.4289 22.823 97.9231 22.6215 97.5249 22.2183C97.1291 21.8126 96.9313 21.2932 96.9313 20.66C96.9313 20.0268 97.1291 19.5074 97.5249 19.1018C97.9231 18.6961 98.4289 18.4933 99.0423 18.4933C99.6607 18.4933 100.169 18.6961 100.567 19.1018C100.965 19.5074 101.165 20.0268 101.165 20.66C101.165 21.2932 100.965 21.8126 100.567 22.2183C100.169 22.6215 99.6607 22.823 99.0423 22.823ZM98.0183 19.5247C97.7537 19.8191 97.6214 20.1975 97.6214 20.66C97.6214 21.1226 97.7537 21.501 98.0183 21.7953C98.2855 22.0872 98.6268 22.2331 99.0423 22.2331C99.4603 22.2331 99.8042 22.0872 100.074 21.7953C100.343 21.501 100.478 21.1226 100.478 20.66C100.478 20.1975 100.343 19.8191 100.074 19.5247C99.8042 19.2279 99.4603 19.0795 99.0423 19.0795C98.6268 19.0795 98.2855 19.2279 98.0183 19.5247ZM101.996 22.7637V18.5527H102.682V19.2761C102.825 19.0436 103.029 18.8557 103.294 18.7122C103.561 18.5663 103.846 18.4933 104.147 18.4933C104.598 18.4933 104.974 18.6293 105.275 18.9014C105.577 19.1735 105.728 19.526 105.728 19.9588V22.7637H105.053V20.1109C105.053 19.8067 104.959 19.5631 104.771 19.38C104.585 19.1945 104.342 19.1018 104.04 19.1018C103.639 19.1018 103.313 19.2576 103.06 19.5692C102.808 19.8784 102.682 20.3125 102.682 20.8715V22.7637H101.996Z" fill="white"/>
<path d="M45.9731 39L49.697 29.3433H51.8048L55.5153 39H53.5018L52.7004 36.8788H48.734L47.9327 39H45.9731ZM49.3536 35.276H52.0944L50.7139 31.707L49.3536 35.276ZM56.3234 41.5118V31.3568H58.155V32.34C58.393 32.0078 58.7274 31.7429 59.1584 31.5454C59.5939 31.3478 60.0653 31.2491 60.5726 31.2491C61.6635 31.2491 62.5434 31.6082 63.2123 32.3265C63.8857 33.0403 64.2224 33.9921 64.2224 35.1818C64.2224 36.3759 63.8857 37.3299 63.2123 38.0438C62.5389 38.7531 61.65 39.1077 60.5456 39.1077C60.0428 39.1077 59.5782 39.0112 59.1517 38.8182C58.7252 38.6206 58.393 38.3558 58.155 38.0236V41.5118H56.3234ZM58.7476 33.4713C58.3526 33.9113 58.155 34.4814 58.155 35.1818C58.155 35.8821 58.3503 36.45 58.7409 36.8855C59.136 37.321 59.6455 37.5387 60.2695 37.5387C60.8936 37.5387 61.4009 37.321 61.7914 36.8855C62.182 36.45 62.3773 35.8821 62.3773 35.1818C62.3773 34.4814 62.1798 33.9113 61.7847 33.4713C61.3941 33.0269 60.8891 32.8046 60.2695 32.8046C59.65 32.8046 59.1427 33.0269 58.7476 33.4713ZM65.5087 41.5118V31.3568H67.3403V32.34C67.5783 32.0078 67.9127 31.7429 68.3437 31.5454C68.7792 31.3478 69.2506 31.2491 69.7579 31.2491C70.8488 31.2491 71.7287 31.6082 72.3976 32.3265C73.071 33.0403 73.4077 33.9921 73.4077 35.1818C73.4077 36.3759 73.071 37.3299 72.3976 38.0438C71.7242 38.7531 70.8353 39.1077 69.7309 39.1077C69.2281 39.1077 68.7635 39.0112 68.337 38.8182C67.9105 38.6206 67.5783 38.3558 67.3403 38.0236V41.5118H65.5087ZM67.9329 33.4713C67.5379 33.9113 67.3403 34.4814 67.3403 35.1818C67.3403 35.8821 67.5356 36.45 67.9262 36.8855C68.3213 37.321 68.8308 37.5387 69.4548 37.5387C70.0789 37.5387 70.5862 37.321 70.9767 36.8855C71.3673 36.45 71.5626 35.8821 71.5626 35.1818C71.5626 34.4814 71.3651 33.9113 70.97 33.4713C70.5794 33.0269 70.0744 32.8046 69.4548 32.8046C68.8353 32.8046 68.328 33.0269 67.9329 33.4713ZM81.0375 39.1077C79.9016 39.1077 78.9836 38.8002 78.2832 38.1852C77.5874 37.5701 77.1945 36.7284 77.1048 35.6599H78.9432C79.0105 36.248 79.226 36.7037 79.5896 37.0269C79.9578 37.3501 80.4404 37.5118 81.0375 37.5118C81.5133 37.5118 81.8994 37.404 82.1957 37.1885C82.4965 36.9685 82.6469 36.6722 82.6469 36.2996C82.6469 36.0886 82.5885 35.9023 82.4718 35.7407C82.3551 35.5791 82.1957 35.4489 81.9937 35.3501C81.7962 35.2469 81.5695 35.1526 81.3136 35.0673C81.0577 34.982 80.7883 34.8989 80.5055 34.8181C80.2226 34.7373 79.9376 34.6498 79.6502 34.5555C79.3674 34.4612 79.098 34.3423 78.8422 34.1986C78.5863 34.0504 78.3573 33.8821 78.1553 33.6935C77.9577 33.5005 77.8006 33.2558 77.6839 32.9595C77.5672 32.6632 77.5088 32.3265 77.5088 31.9494C77.5088 31.4197 77.6547 30.946 77.9465 30.5285C78.2383 30.111 78.6334 29.7923 79.1317 29.5723C79.63 29.3478 80.1867 29.2356 80.8018 29.2356C81.8209 29.2356 82.6536 29.4982 83.3001 30.0235C83.9511 30.5442 84.3327 31.2603 84.4449 32.1716H82.6065C82.5302 31.7586 82.3282 31.4331 82.0004 31.1952C81.6727 30.9573 81.2732 30.8383 80.8018 30.8383C80.3618 30.8383 80.0139 30.9303 79.758 31.1144C79.5066 31.2984 79.3809 31.5499 79.3809 31.8686C79.3809 32.0572 79.4392 32.221 79.556 32.3602C79.6727 32.4949 79.8298 32.6071 80.0274 32.6969C80.2294 32.7822 80.4583 32.863 80.7142 32.9393C80.9746 33.0112 81.2462 33.0852 81.5291 33.1615C81.8164 33.2379 82.1015 33.3254 82.3843 33.4242C82.6716 33.5185 82.9432 33.6419 83.1991 33.7945C83.4595 33.9472 83.6885 34.1268 83.886 34.3333C84.088 34.5353 84.2474 34.7957 84.3641 35.1144C84.4808 35.4287 84.5392 35.7856 84.5392 36.1852C84.5392 37.0606 84.2115 37.7677 83.556 38.3064C82.9006 38.8406 82.061 39.1077 81.0375 39.1077ZM88.849 39.0943C88.0993 39.0943 87.4865 38.8743 87.0106 38.4343C86.5392 37.9944 86.3035 37.3793 86.3035 36.5892V32.8518H85.1991V31.3568H86.3035V29.7743H88.1352V31.3568H89.7783V32.8518H88.1352V36.4208C88.1352 36.771 88.2205 37.0426 88.3911 37.2357C88.5662 37.4287 88.8019 37.5252 89.0982 37.5252C89.3137 37.5252 89.5718 37.4736 89.8726 37.3704V38.9192C89.5314 39.0359 89.1902 39.0943 88.849 39.0943ZM94.4114 39.1077C93.2531 39.1077 92.3013 38.7419 91.5561 38.0101C90.8109 37.2738 90.4383 36.3311 90.4383 35.1818C90.4383 34.0325 90.8109 33.0897 91.5561 32.3535C92.3013 31.6172 93.2531 31.2491 94.4114 31.2491C95.5651 31.2491 96.5146 31.6172 97.2599 32.3535C98.0096 33.0897 98.3845 34.0325 98.3845 35.1818C98.3845 36.3311 98.0096 37.2738 97.2599 38.0101C96.5146 38.7419 95.5651 39.1077 94.4114 39.1077ZM92.2901 35.1818C92.2901 35.8821 92.4854 36.45 92.876 36.8855C93.2711 37.321 93.7828 37.5387 94.4114 37.5387C95.0354 37.5387 95.5427 37.321 95.9333 36.8855C96.3283 36.45 96.5259 35.8821 96.5259 35.1818C96.5259 34.4814 96.3283 33.9113 95.9333 33.4713C95.5382 33.0269 95.0309 32.8046 94.4114 32.8046C93.7828 32.8046 93.2711 33.0246 92.876 33.4646C92.4854 33.9045 92.2901 34.4769 92.2901 35.1818ZM99.637 39V31.3568H101.469V32.4343C101.662 32.0841 101.96 31.799 102.364 31.579C102.773 31.3591 103.202 31.2491 103.651 31.2491C103.983 31.2491 104.286 31.3007 104.56 31.4039V33.1548C104.25 33.0246 103.915 32.9595 103.556 32.9595C102.95 32.9595 102.45 33.2311 102.055 33.7743C101.664 34.3131 101.469 35.1167 101.469 36.1852V39H99.637ZM108.715 39.1077C107.538 39.1077 106.598 38.7441 105.893 38.0168C105.188 37.2895 104.836 36.3445 104.836 35.1818C104.836 34.6161 104.932 34.0886 105.125 33.5993C105.318 33.1099 105.583 32.6946 105.92 32.3535C106.257 32.0078 106.661 31.7384 107.132 31.5454C107.608 31.3478 108.117 31.2491 108.661 31.2491C109.469 31.2491 110.171 31.4399 110.768 31.8215C111.37 32.2031 111.806 32.7216 112.075 33.377C112.344 34.0325 112.425 34.7575 112.317 35.5521H106.647C106.715 36.1986 106.932 36.6992 107.3 37.0538C107.673 37.404 108.144 37.5791 108.715 37.5791C109.168 37.5791 109.543 37.4848 109.839 37.2963C110.135 37.1032 110.326 36.8384 110.412 36.5017H112.284C112.135 37.2648 111.745 37.8911 111.112 38.3805C110.479 38.8653 109.68 39.1077 108.715 39.1077ZM106.728 34.2121H110.412C110.398 33.7452 110.232 33.3725 109.913 33.0942C109.594 32.8114 109.177 32.67 108.661 32.67C107.624 32.67 106.979 33.184 106.728 34.2121Z" fill="white"/>
<defs>
<clipPath id="clip0_150_3640">
<rect width="22.9289" height="22.9289" fill="white" transform="translate(16.0898 17.1963)"/>
</clipPath>
</defs>
</svg>
