<svg width="138" height="59" viewBox="0 0 138 59" fill="none" xmlns="http://www.w3.org/2000/svg">
<rect x="0.66058" y="0.574642" width="136.765" height="56.8896" stroke="white" stroke-opacity="0.2" stroke-width="1.14928"/>
<g clip-path="url(#clip0_150_3650)">
<path d="M17.6961 17.4885C17.1054 17.1329 16.4014 17.1011 15.7874 17.3971L26.0818 27.7135L29.4477 24.3319L17.6961 17.4885ZM14.8416 18.3519C14.7117 18.6269 14.6418 18.9328 14.6418 19.2476V38.1185C14.6418 38.4346 14.7122 38.736 14.8434 39.0052L25.1337 28.666L14.8416 18.3519ZM26.0832 29.6172L15.8054 39.9438C16.0781 40.0701 16.3683 40.1252 16.658 40.1252C17.0159 40.1252 17.3728 40.0397 17.6961 39.8453L29.45 32.9917L26.0832 29.6172ZM33.9234 26.9383C33.9194 26.9356 33.9149 26.9329 33.9109 26.9307L30.648 25.0305L27.0308 28.6647L30.6502 32.2917C30.6502 32.2917 33.9194 30.3857 33.9234 30.3835C34.5302 30.0149 34.8925 29.3709 34.8925 28.6606C34.8925 27.9504 34.5302 27.3064 33.9234 26.9383Z" fill="white"/>
</g>
<path d="M46.0854 22.823C45.7119 22.823 45.3669 22.76 45.0503 22.6338C44.7337 22.5077 44.4604 22.3296 44.2303 22.0996C44.0003 21.8671 43.8198 21.5801 43.6887 21.2388C43.56 20.8975 43.4957 20.519 43.4957 20.1035C43.4957 19.688 43.56 19.3095 43.6887 18.9682C43.8173 18.6269 43.9954 18.3412 44.2229 18.1112C44.4505 17.8787 44.7238 17.6993 45.0429 17.5732C45.3619 17.4471 45.7094 17.384 46.0854 17.384C46.7013 17.384 47.2083 17.5509 47.6066 17.8848C48.0048 18.2188 48.2348 18.6516 48.2966 19.1834H47.6066C47.5447 18.8272 47.3753 18.5391 47.0983 18.3189C46.8237 18.0963 46.4861 17.985 46.0854 17.985C45.519 17.985 45.0614 18.1767 44.7127 18.5601C44.3664 18.941 44.1932 19.4555 44.1932 20.1035C44.1932 20.754 44.3676 21.271 44.7164 21.6543C45.0651 22.0352 45.5215 22.2257 46.0854 22.2257C46.4886 22.2257 46.8324 22.1033 47.1168 21.8584C47.4037 21.6111 47.5744 21.3044 47.6288 20.9383H48.3189C48.2521 21.4824 48.0159 21.9326 47.6103 22.2888C47.2046 22.6449 46.6963 22.823 46.0854 22.823ZM50.942 22.823C50.3286 22.823 49.8227 22.6215 49.4245 22.2183C49.0288 21.8126 48.8309 21.2932 48.8309 20.66C48.8309 20.0268 49.0288 19.5074 49.4245 19.1018C49.8227 18.6961 50.3286 18.4933 50.942 18.4933C51.5603 18.4933 52.0686 18.6961 52.4668 19.1018C52.8651 19.5074 53.0642 20.0268 53.0642 20.66C53.0642 21.2932 52.8651 21.8126 52.4668 22.2183C52.0686 22.6215 51.5603 22.823 50.942 22.823ZM49.918 19.5247C49.6533 19.8191 49.521 20.1975 49.521 20.66C49.521 21.1226 49.6533 21.501 49.918 21.7953C50.1851 22.0872 50.5264 22.2331 50.942 22.2331C51.36 22.2331 51.7038 22.0872 51.9734 21.7953C52.243 21.501 52.3778 21.1226 52.3778 20.66C52.3778 20.1975 52.243 19.8191 51.9734 19.5247C51.7038 19.2279 51.36 19.0795 50.942 19.0795C50.5264 19.0795 50.1851 19.2279 49.918 19.5247ZM58.8037 18.4933C59.2242 18.4933 59.5717 18.6293 59.8463 18.9014C60.1208 19.171 60.2581 19.526 60.2581 19.9662V22.7637H59.5717V20.1109C59.5717 19.8067 59.4876 19.5631 59.3194 19.38C59.1513 19.1945 58.9262 19.1018 58.6442 19.1018C58.2707 19.1018 57.9727 19.2687 57.7501 19.6026C57.5275 19.9366 57.4162 20.3855 57.4162 20.9494V22.7637H56.7372V20.1109C56.7372 19.8067 56.6531 19.5631 56.4849 19.38C56.3167 19.1945 56.0929 19.1018 55.8134 19.1018C55.4349 19.1018 55.1344 19.2675 54.9118 19.5989C54.6917 19.9304 54.5816 20.3805 54.5816 20.9494V22.7637H53.8952V18.5527H54.5816V19.2761C54.7028 19.0486 54.8871 18.8618 55.1344 18.7159C55.3842 18.5675 55.6575 18.4933 55.9544 18.4933C56.2833 18.4933 56.5641 18.5762 56.7966 18.7419C57.0315 18.9051 57.1973 19.1438 57.2937 19.4579C57.4471 19.1512 57.6585 18.9138 57.9281 18.7456C58.1978 18.5774 58.4896 18.4933 58.8037 18.4933ZM61.2932 22.7637V18.5527H61.9796V22.7637H61.2932ZM61.2858 17.8626V17.102H61.9945V17.8626H61.2858ZM63.0741 22.7637V18.5527H63.7605V19.2761C63.9039 19.0436 64.108 18.8557 64.3726 18.7122C64.6398 18.5663 64.9242 18.4933 65.226 18.4933C65.6761 18.4933 66.0521 18.6293 66.3539 18.9014C66.6556 19.1735 66.8065 19.526 66.8065 19.9588V22.7637H66.1313V20.1109C66.1313 19.8067 66.0373 19.5631 65.8493 19.38C65.6638 19.1945 65.4201 19.1018 65.1184 19.1018C64.7177 19.1018 64.3912 19.2576 64.1389 19.5692C63.8866 19.8784 63.7605 20.3125 63.7605 20.8715V22.7637H63.0741ZM69.6336 24.2069C69.1365 24.2069 68.7209 24.0931 68.387 23.8656C68.0556 23.638 67.8552 23.3313 67.786 22.9455H68.4686C68.6071 23.4006 69.0004 23.6281 69.6485 23.6281C70.0516 23.6281 70.3707 23.523 70.6057 23.3128C70.8431 23.105 70.9618 22.8131 70.9618 22.4372V21.8807C70.8233 22.0983 70.6217 22.2739 70.3571 22.4075C70.0949 22.5386 69.8154 22.6041 69.5186 22.6041C68.9448 22.6041 68.4773 22.4149 68.1162 22.0365C67.7551 21.6556 67.5745 21.1634 67.5745 20.5599C67.5745 19.944 67.7538 19.4456 68.1125 19.0647C68.4736 18.6838 68.9398 18.4933 69.5112 18.4933C69.8129 18.4933 70.0949 18.5576 70.3571 18.6862C70.6193 18.8124 70.8209 18.983 70.9618 19.1982V18.5527H71.6371V22.4075C71.6371 22.969 71.4503 23.4092 71.0769 23.7283C70.7058 24.0474 70.2248 24.2069 69.6336 24.2069ZM68.2646 20.545C68.2646 20.9729 68.3907 21.3241 68.643 21.5987C68.8978 21.8732 69.2206 22.0105 69.6114 22.0105C70.0022 22.0105 70.3249 21.8732 70.5797 21.5987C70.8345 21.3217 70.9618 20.9704 70.9618 20.545C70.9618 20.1221 70.8345 19.7721 70.5797 19.495C70.3249 19.218 70.0022 19.0795 69.6114 19.0795C69.2206 19.0795 68.8978 19.218 68.643 19.495C68.3907 19.7721 68.2646 20.1221 68.2646 20.545ZM75.7516 22.823C75.2693 22.823 74.876 22.6957 74.5718 22.4409C74.2676 22.1861 74.1019 21.846 74.0746 21.4206H74.7499C74.7722 21.6803 74.8711 21.8819 75.0467 22.0254C75.2248 22.1688 75.4598 22.2405 75.7516 22.2405C76.0163 22.2405 76.2253 22.1787 76.3786 22.055C76.5345 21.9314 76.6124 21.7644 76.6124 21.5542C76.6124 21.4157 76.5679 21.3006 76.4788 21.2091C76.3898 21.1151 76.2735 21.0422 76.1301 20.9902C75.9891 20.9383 75.832 20.8913 75.6589 20.8492C75.4857 20.8072 75.3126 20.759 75.1395 20.7045C74.9663 20.6477 74.808 20.5796 74.6646 20.5005C74.5236 20.4189 74.4086 20.3039 74.3195 20.1554C74.2305 20.0046 74.186 19.8252 74.186 19.6175C74.186 19.2935 74.3195 19.0251 74.5866 18.8124C74.8538 18.5997 75.1939 18.4933 75.6069 18.4933C76.0645 18.4933 76.4293 18.6021 76.7014 18.8198C76.9735 19.035 77.133 19.3392 77.18 19.7325H76.4974C76.4627 19.5223 76.3687 19.3602 76.2154 19.2465C76.0645 19.1302 75.8617 19.0721 75.6069 19.0721C75.3843 19.0721 75.2062 19.1216 75.0727 19.2205C74.9391 19.3194 74.8723 19.4518 74.8723 19.6175C74.8723 19.7238 74.907 19.8154 74.9762 19.892C75.0455 19.9662 75.137 20.0244 75.2508 20.0664C75.3645 20.106 75.4932 20.148 75.6366 20.1926C75.7825 20.2346 75.9309 20.2729 76.0818 20.3076C76.2352 20.3422 76.3836 20.3929 76.527 20.4597C76.673 20.524 76.8028 20.5994 76.9166 20.686C77.0304 20.7701 77.1219 20.8863 77.1912 21.0348C77.2604 21.1832 77.295 21.3538 77.295 21.5467C77.295 21.9301 77.1503 22.2393 76.861 22.4743C76.574 22.7068 76.2043 22.823 75.7516 22.823ZM79.9626 22.823C79.3492 22.823 78.8434 22.6215 78.4452 22.2183C78.0494 21.8126 77.8516 21.2932 77.8516 20.66C77.8516 20.0268 78.0494 19.5074 78.4452 19.1018C78.8434 18.6961 79.3492 18.4933 79.9626 18.4933C80.581 18.4933 81.0893 18.6961 81.4875 19.1018C81.8857 19.5074 82.0848 20.0268 82.0848 20.66C82.0848 21.2932 81.8857 21.8126 81.4875 22.2183C81.0893 22.6215 80.581 22.823 79.9626 22.823ZM78.9386 19.5247C78.674 19.8191 78.5416 20.1975 78.5416 20.66C78.5416 21.1226 78.674 21.501 78.9386 21.7953C79.2058 22.0872 79.5471 22.2331 79.9626 22.2331C80.3806 22.2331 80.7244 22.0872 80.994 21.7953C81.2636 21.501 81.3984 21.1226 81.3984 20.66C81.3984 20.1975 81.2636 19.8191 80.994 19.5247C80.7244 19.2279 80.3806 19.0795 79.9626 19.0795C79.5471 19.0795 79.2058 19.2279 78.9386 19.5247ZM84.771 22.823C84.1575 22.823 83.6517 22.6215 83.2535 22.2183C82.8578 21.8126 82.6599 21.2932 82.6599 20.66C82.6599 20.0268 82.8578 19.5074 83.2535 19.1018C83.6517 18.6961 84.1575 18.4933 84.771 18.4933C85.3893 18.4933 85.8976 18.6961 86.2958 19.1018C86.694 19.5074 86.8932 20.0268 86.8932 20.66C86.8932 21.2932 86.694 21.8126 86.2958 22.2183C85.8976 22.6215 85.3893 22.823 84.771 22.823ZM83.747 19.5247C83.4823 19.8191 83.35 20.1975 83.35 20.66C83.35 21.1226 83.4823 21.501 83.747 21.7953C84.0141 22.0872 84.3554 22.2331 84.771 22.2331C85.189 22.2331 85.5328 22.0872 85.8024 21.7953C86.072 21.501 86.2068 21.1226 86.2068 20.66C86.2068 20.1975 86.072 19.8191 85.8024 19.5247C85.5328 19.2279 85.189 19.0795 84.771 19.0795C84.3554 19.0795 84.0141 19.2279 83.747 19.5247ZM87.7242 22.7637V18.5527H88.4106V19.2761C88.5541 19.0436 88.7581 18.8557 89.0228 18.7122C89.2899 18.5663 89.5743 18.4933 89.8761 18.4933C90.3263 18.4933 90.7022 18.6293 91.004 18.9014C91.3057 19.1735 91.4566 19.526 91.4566 19.9588V22.7637H90.7814V20.1109C90.7814 19.8067 90.6874 19.5631 90.4994 19.38C90.3139 19.1945 90.0703 19.1018 89.7685 19.1018C89.3678 19.1018 89.0413 19.2576 88.789 19.5692C88.5367 19.8784 88.4106 20.3125 88.4106 20.8715V22.7637H87.7242ZM96.0423 22.823C95.4289 22.823 94.9231 22.6215 94.5249 22.2183C94.1291 21.8126 93.9313 21.2932 93.9313 20.66C93.9313 20.0268 94.1291 19.5074 94.5249 19.1018C94.9231 18.6961 95.4289 18.4933 96.0423 18.4933C96.6607 18.4933 97.169 18.6961 97.5672 19.1018C97.9654 19.5074 98.1645 20.0268 98.1645 20.66C98.1645 21.2932 97.9654 21.8126 97.5672 22.2183C97.169 22.6215 96.6607 22.823 96.0423 22.823ZM95.0183 19.5247C94.7537 19.8191 94.6214 20.1975 94.6214 20.66C94.6214 21.1226 94.7537 21.501 95.0183 21.7953C95.2855 22.0872 95.6268 22.2331 96.0423 22.2331C96.4603 22.2331 96.8042 22.0872 97.0738 21.7953C97.3434 21.501 97.4782 21.1226 97.4782 20.66C97.4782 20.1975 97.3434 19.8191 97.0738 19.5247C96.8042 19.2279 96.4603 19.0795 96.0423 19.0795C95.6268 19.0795 95.2855 19.2279 95.0183 19.5247ZM98.9956 22.7637V18.5527H99.682V19.2761C99.8254 19.0436 100.029 18.8557 100.294 18.7122C100.561 18.5663 100.846 18.4933 101.147 18.4933C101.598 18.4933 101.974 18.6293 102.275 18.9014C102.577 19.1735 102.728 19.526 102.728 19.9588V22.7637H102.053V20.1109C102.053 19.8067 101.959 19.5631 101.771 19.38C101.585 19.1945 101.342 19.1018 101.04 19.1018C100.639 19.1018 100.313 19.2576 100.06 19.5692C99.8081 19.8784 99.682 20.3125 99.682 20.8715V22.7637H98.9956Z" fill="white"/>
<path d="M48.6092 38.6195C47.9582 38.6195 47.3454 38.5095 46.7708 38.2895C46.2006 38.0695 45.6978 37.7575 45.2623 37.3535C44.8313 36.9449 44.4901 36.4264 44.2387 35.7979C43.9918 35.1649 43.8684 34.46 43.8684 33.6834C43.8684 32.1974 44.3083 31.0032 45.1882 30.1008C46.0682 29.1985 47.2264 28.7473 48.663 28.7473C49.8527 28.7473 50.8247 29.0593 51.5789 29.6833C52.3376 30.3074 52.7731 31.1356 52.8853 32.1682H50.993C50.9077 31.6115 50.6586 31.1693 50.2455 30.8416C49.8325 30.5139 49.305 30.35 48.663 30.35C47.7921 30.35 47.0895 30.6553 46.5553 31.2658C46.021 31.8719 45.7539 32.6778 45.7539 33.6834C45.7539 34.698 46.0233 35.5083 46.562 36.1144C47.1007 36.7205 47.8145 37.0235 48.7034 37.0235C49.4262 37.0235 50.0166 36.8215 50.4745 36.4174C50.9369 36.0134 51.1928 35.4881 51.2422 34.8416H48.3465V33.3669H52.9796V38.5117H51.2422V37.4073C51.0357 37.762 50.69 38.0538 50.2051 38.2828C49.7203 38.5072 49.1883 38.6195 48.6092 38.6195ZM58.0706 38.6195C56.9123 38.6195 55.9605 38.2536 55.2153 37.5218C54.4701 36.7855 54.0974 35.8428 54.0974 34.6935C54.0974 33.5442 54.4701 32.6014 55.2153 31.8652C55.9605 31.1289 56.9123 30.7608 58.0706 30.7608C59.2243 30.7608 60.1738 31.1289 60.9191 31.8652C61.6688 32.6014 62.0437 33.5442 62.0437 34.6935C62.0437 35.8428 61.6688 36.7855 60.9191 37.5218C60.1738 38.2536 59.2243 38.6195 58.0706 38.6195ZM55.9493 34.6935C55.9493 35.3938 56.1446 35.9617 56.5352 36.3972C56.9302 36.8327 57.442 37.0504 58.0706 37.0504C58.6946 37.0504 59.2019 36.8327 59.5925 36.3972C59.9875 35.9617 60.1851 35.3938 60.1851 34.6935C60.1851 33.9931 59.9875 33.423 59.5925 32.983C59.1974 32.5386 58.6901 32.3164 58.0706 32.3164C57.442 32.3164 56.9302 32.5363 56.5352 32.9763C56.1446 33.4163 55.9493 33.9887 55.9493 34.6935ZM66.8653 38.6195C65.707 38.6195 64.7553 38.2536 64.01 37.5218C63.2648 36.7855 62.8922 35.8428 62.8922 34.6935C62.8922 33.5442 63.2648 32.6014 64.01 31.8652C64.7553 31.1289 65.707 30.7608 66.8653 30.7608C68.019 30.7608 68.9686 31.1289 69.7138 31.8652C70.4635 32.6014 70.8384 33.5442 70.8384 34.6935C70.8384 35.8428 70.4635 36.7855 69.7138 37.5218C68.9686 38.2536 68.019 38.6195 66.8653 38.6195ZM64.744 34.6935C64.744 35.3938 64.9393 35.9617 65.3299 36.3972C65.725 36.8327 66.2368 37.0504 66.8653 37.0504C67.4893 37.0504 67.9966 36.8327 68.3872 36.3972C68.7822 35.9617 68.9798 35.3938 68.9798 34.6935C68.9798 33.9931 68.7822 33.423 68.3872 32.983C67.9921 32.5386 67.4848 32.3164 66.8653 32.3164C66.2368 32.3164 65.725 32.5363 65.3299 32.9763C64.9393 33.4163 64.744 33.9887 64.744 34.6935ZM75.5388 41.1313C74.5825 41.1313 73.7879 40.9135 73.1549 40.4781C72.5219 40.0426 72.1493 39.4657 72.0371 38.7474H73.8687C73.9675 39.0527 74.1605 39.2884 74.4479 39.4545C74.7397 39.6251 75.1168 39.7104 75.5792 39.7104C76.1808 39.7104 76.6522 39.551 76.9933 39.2323C77.339 38.9135 77.5119 38.4758 77.5119 37.9191V37.212C77.2784 37.5263 76.9574 37.771 76.5489 37.9461C76.1448 38.1211 75.7026 38.2087 75.2223 38.2087C74.1807 38.2087 73.33 37.8697 72.6701 37.1918C72.0146 36.5094 71.6869 35.6205 71.6869 34.5251C71.6869 33.3893 72.0124 32.478 72.6633 31.7911C73.3188 31.1042 74.1673 30.7608 75.2088 30.7608C75.6937 30.7608 76.1359 30.8461 76.5354 31.0167C76.9395 31.1828 77.265 31.414 77.5119 31.7103V30.8685H79.3435V37.8383C79.3435 38.8709 78.9911 39.6767 78.2863 40.2558C77.5815 40.8395 76.6656 41.1313 75.5388 41.1313ZM74.091 32.9292C73.7228 33.3377 73.5388 33.8562 73.5388 34.4847C73.5388 35.1132 73.7228 35.6318 74.091 36.0403C74.4636 36.4488 74.9417 36.6531 75.5253 36.6531C76.1089 36.6531 76.5848 36.4488 76.9529 36.0403C77.3256 35.6318 77.5119 35.1132 77.5119 34.4847C77.5119 33.8562 77.3256 33.3377 76.9529 32.9292C76.5848 32.5206 76.1089 32.3164 75.5253 32.3164C74.9417 32.3164 74.4636 32.5206 74.091 32.9292ZM80.9261 38.5117V28.7473H82.7443V38.5117H80.9261ZM87.8756 38.6195C86.6994 38.6195 85.7589 38.2558 85.054 37.5285C84.3492 36.8013 83.9968 35.8562 83.9968 34.6935C83.9968 34.1278 84.0933 33.6003 84.2864 33.111C84.4794 32.6216 84.7443 32.2064 85.081 31.8652C85.4177 31.5195 85.8217 31.2501 86.2931 31.0571C86.769 30.8595 87.2785 30.7608 87.8218 30.7608C88.6298 30.7608 89.3324 30.9516 89.9295 31.3332C90.5311 31.7148 90.9666 32.2333 91.2359 32.8888C91.5053 33.5442 91.5861 34.2692 91.4784 35.0639H85.8083C85.8756 35.7103 86.0933 36.2109 86.4615 36.5656C86.8341 36.9157 87.3055 37.0908 87.8756 37.0908C88.3291 37.0908 88.7039 36.9965 89.0002 36.808C89.2965 36.615 89.4873 36.3501 89.5726 36.0134H91.4447C91.2965 36.7766 90.906 37.4028 90.273 37.8922C89.64 38.377 88.8409 38.6195 87.8756 38.6195ZM85.8891 33.7238H89.5726C89.5592 33.2569 89.393 32.8843 89.0743 32.6059C88.7556 32.3231 88.338 32.1817 87.8218 32.1817C86.7847 32.1817 86.1405 32.6957 85.8891 33.7238ZM95.7545 38.5117V28.855H99.6872C100.657 28.855 101.431 29.1244 102.01 29.6631C102.594 30.1974 102.886 30.9089 102.886 31.7978C102.886 32.6867 102.594 33.4005 102.01 33.9393C101.431 34.478 100.657 34.7474 99.6872 34.7474H97.6333V38.5117H95.7545ZM97.6333 33.1446H99.4919C99.9588 33.1446 100.327 33.0234 100.596 32.781C100.87 32.5341 101.007 32.2064 101.007 31.7978C101.007 31.3893 100.87 31.0638 100.596 30.8214C100.327 30.579 99.9588 30.4577 99.4919 30.4577H97.6333V33.1446ZM103.943 38.5117V28.7473H105.761V38.5117H103.943ZM109.761 38.6195C108.944 38.6195 108.298 38.4219 107.822 38.0269C107.351 37.6273 107.115 37.0908 107.115 36.4174C107.115 35.6946 107.378 35.1245 107.903 34.707C108.428 34.2894 109.245 34.0223 110.354 33.9056L112.064 33.7103V33.5622C112.064 33.1357 111.921 32.799 111.633 32.552C111.351 32.3051 110.976 32.1817 110.509 32.1817C110.055 32.1817 109.681 32.3029 109.384 32.5453C109.093 32.7833 108.924 33.1132 108.879 33.5352H107.115C107.214 32.7271 107.577 32.0627 108.206 31.5419C108.834 31.0212 109.602 30.7608 110.509 30.7608C111.519 30.7608 112.334 31.0257 112.953 31.5554C113.573 32.0807 113.883 32.8169 113.883 33.7642V38.5117H112.064V37.5016C111.885 37.8383 111.584 38.1099 111.162 38.3164C110.745 38.5185 110.278 38.6195 109.761 38.6195ZM108.947 36.3433C108.947 36.5992 109.05 36.808 109.256 36.9696C109.467 37.1312 109.741 37.212 110.078 37.212C110.675 37.212 111.155 37.0212 111.519 36.6396C111.883 36.2536 112.064 35.7283 112.064 35.0639L110.381 35.2457C109.425 35.3534 108.947 35.7193 108.947 36.3433ZM116.24 41.0235L117.351 38.3905L114.361 30.8685H116.347L118.307 36.0403L120.253 30.8685H122.179L118.152 41.0235H116.24Z" fill="white"/>
<defs>
<clipPath id="clip0_150_3650">
<rect width="22.9289" height="22.9289" fill="white" transform="translate(13.3027 17.1963)"/>
</clipPath>
</defs>
</svg>
