<svg width="737" height="156" viewBox="0 0 737 156" fill="none" xmlns="http://www.w3.org/2000/svg">
<path d="M231.1 153.545H260.931V86.424H321.033V60.9794H260.931V25.4446H335.291V0H231.1V153.545Z" fill="#171717"/>
<path d="M351.46 153.545H380.414V0.20369H351.46V153.545Z" fill="#171717"/>
<path d="M463.537 155.3C500.169 155.3 526.71 129.417 526.71 92.7852C526.71 56.1537 500.169 30.2703 463.537 30.2703C426.687 30.2703 400.365 56.1537 400.365 92.7852C400.365 129.417 426.687 155.3 463.537 155.3ZM429.757 92.7852C429.757 70.4114 443.577 55.0569 463.537 55.0569C483.279 55.0569 497.098 70.4114 497.098 92.7852C497.098 115.159 483.279 130.294 463.537 130.294C443.577 130.294 429.757 115.159 429.757 92.7852Z" fill="#171717"/>
<path d="M583.894 155.3C600.345 155.3 614.822 148.281 620.526 137.533V153.545H649.48V78.0887C649.48 47.3797 627.106 30.2703 595.739 30.2703C566.565 30.2703 544.85 48.9151 541.779 74.3597H569.856C571.391 60.76 581.481 52.8634 595.739 52.8634C610.435 52.8634 620.526 60.9794 620.526 74.7985V77.2113L593.326 80.2822C557.572 84.0112 541.779 97.6109 541.779 120.204C541.779 141.481 557.791 155.3 583.894 155.3ZM570.952 119.107C570.952 109.675 578.191 103.314 593.765 101.559L620.526 98.7076C620.526 120.204 607.584 132.926 588.939 132.926C578.191 132.926 570.952 127.223 570.952 119.107Z" fill="#171717"/>
<path d="M720.597 155.081C726.739 155.081 731.784 153.984 736.829 152.229V127.662C733.1 128.978 728.275 130.075 724.546 130.075C715.333 130.075 709.191 123.933 709.191 112.527V55.715H735.294V32.0251H709.191V6.79987H680.018V32.0251H662.469V55.715H680.018V115.159C680.018 141.042 697.566 155.081 720.597 155.081Z" fill="#171717"/>
<path fill-rule="evenodd" clip-rule="evenodd" d="M91.9113 1.78593C125.522 1.78593 152.768 29.0324 152.768 62.6426H31.0547C31.0547 29.0324 58.3011 1.78593 91.9113 1.78593Z" fill="#171717"/>
<path fill-rule="evenodd" clip-rule="evenodd" d="M183.812 62.6074C183.812 113.366 142.664 154.513 91.9058 154.513C41.1476 154.513 0 113.366 0 62.6074H183.812ZM152.769 62.6439C152.769 96.2541 125.522 123.501 91.912 123.501C58.3018 123.501 31.0553 96.2541 31.0553 62.6439H152.769Z" fill="#171717"/>
</svg>
